<svg width="54" height="37" viewBox="0 0 54 37" fill="none" xmlns="http://www.w3.org/2000/svg">
<g filter="url(#filter0_d)">
<path d="M17.5391 4.32422C19.0859 4.32422 20.4844 4.57422 21.7344 5.07422C22.9922 5.56641 24.0664 6.25391 24.957 7.13672C25.8477 8.01953 26.5352 9.07031 27.0195 10.2891C27.5039 11.5078 27.7461 12.8398 27.7461 14.2852C27.7461 15.2148 27.6562 16.1133 27.4766 16.9805C27.2969 17.8477 27.0391 18.6641 26.7031 19.4297C26.3672 20.1953 25.9531 20.8945 25.4609 21.5273C24.9766 22.1602 24.4258 22.707 23.8086 23.168C23.1992 23.6211 22.5273 23.9727 21.793 24.2227C21.0664 24.4727 20.2891 24.5977 19.4609 24.5977C18.6172 24.5977 17.7656 24.5195 16.9062 24.3633C16.0469 24.207 15.1953 24.0391 14.3516 23.8594C14.0625 24.0234 13.7656 24.1641 13.4609 24.2812C13.1562 24.4062 12.8516 24.5078 12.5469 24.5859C12.2422 24.6719 11.9414 24.7344 11.6445 24.7734C11.3555 24.8203 11.082 24.8438 10.8242 24.8438C10.043 24.8438 9.44922 24.7539 9.04297 24.5742C8.62891 24.3945 8.42188 24.125 8.42188 23.7656C8.42188 23.5547 8.48047 23.3672 8.59766 23.2031C8.70703 23.0391 8.89453 22.9023 9.16016 22.793C9.42578 22.6758 9.77344 22.5898 10.2031 22.5352C10.625 22.4727 11.1523 22.4414 11.7852 22.4414C12.2773 22.4414 12.7617 22.4688 13.2383 22.5234C13.7148 22.5703 14.1875 22.6289 14.6562 22.6992L14.9727 22.3711C15.1367 22.1758 15.2617 21.9297 15.3477 21.6328C15.4336 21.3281 15.4961 20.9375 15.5352 20.4609C15.5742 19.9844 15.5977 19.4023 15.6055 18.7148C15.6133 18.0195 15.6172 17.1797 15.6172 16.1953C15.6172 15.2422 15.6211 14.4297 15.6289 13.7578C15.6445 13.0781 15.6758 12.4961 15.7227 12.0117C15.7695 11.5273 15.8398 11.1172 15.9336 10.7812C16.0273 10.4375 16.1523 10.125 16.3086 9.84375C16.4727 9.55469 16.6758 9.27344 16.918 9C17.1602 8.71875 17.4492 8.39844 17.7852 8.03906L18.3828 8.56641C18.2109 8.73047 18.0742 8.93359 17.9727 9.17578C17.8789 9.41016 17.8086 9.69141 17.7617 10.0195C17.7148 10.3398 17.6836 10.707 17.668 11.1211C17.6602 11.5273 17.6562 11.9883 17.6562 12.5039V19.1016C17.6562 19.6094 17.6016 20.0547 17.4922 20.4375C17.3828 20.8125 17.2344 21.1484 17.0469 21.4453C16.8672 21.7422 16.6602 22.0078 16.4258 22.2422C16.1914 22.4766 15.9492 22.6953 15.6992 22.8984C16.1602 22.9922 16.6094 23.0859 17.0469 23.1797C17.4844 23.2734 17.9062 23.3594 18.3125 23.4375C18.7266 23.5156 19.1211 23.582 19.4961 23.6367C19.8789 23.6836 20.2422 23.707 20.5859 23.707C21.2266 23.707 21.7969 23.5664 22.2969 23.2852C22.7969 23.0039 23.2305 22.6211 23.5977 22.1367C23.9648 21.6445 24.2734 21.0703 24.5234 20.4141C24.7812 19.75 24.9883 19.0391 25.1445 18.2812C25.3008 17.5234 25.4102 16.7305 25.4727 15.9023C25.543 15.0742 25.5781 14.2539 25.5781 13.4414C25.5781 12.1523 25.4141 10.9961 25.0859 9.97266C24.7578 8.94922 24.2695 8.08203 23.6211 7.37109C22.9805 6.65234 22.1797 6.10547 21.2188 5.73047C20.2656 5.34766 19.1602 5.15625 17.9023 5.15625C16.9961 5.15625 16.207 5.23047 15.5352 5.37891C14.8633 5.51953 14.2852 5.71094 13.8008 5.95312C13.3242 6.1875 12.9336 6.45703 12.6289 6.76172C12.3242 7.06641 12.082 7.38281 11.9023 7.71094C11.7305 8.03125 11.6094 8.35156 11.5391 8.67188C11.4766 8.99219 11.4453 9.28516 11.4453 9.55078C11.4453 9.86328 11.4688 10.1719 11.5156 10.4766C11.5703 10.7734 11.6719 11.0391 11.8203 11.2734C11.9766 11.5078 12.1953 11.6953 12.4766 11.8359C12.7578 11.9766 13.1328 12.0469 13.6016 12.0469C13.7578 12.0469 13.8867 12.0391 13.9883 12.0234C14.0898 12 14.1758 11.9727 14.2461 11.9414C14.3242 11.9102 14.3906 11.875 14.4453 11.8359L14.5859 12.5273C14.4688 12.6133 14.2695 12.6875 13.9883 12.75C13.7148 12.8125 13.418 12.8438 13.0977 12.8438C12.6289 12.8438 12.1914 12.7617 11.7852 12.5977C11.3867 12.4336 11.0391 12.2109 10.7422 11.9297C10.4453 11.6406 10.2148 11.3086 10.0508 10.9336C9.87891 10.5586 9.79297 10.1602 9.79297 9.73828C9.79297 9.01172 9.98438 8.32422 10.3672 7.67578C10.75 7.01953 11.2852 6.44531 11.9727 5.95312C12.6602 5.45312 13.4766 5.05859 14.4219 4.76953C15.375 4.47266 16.4141 4.32422 17.5391 4.32422ZM10.3438 23.2852C10.2188 23.2852 10.0859 23.2891 9.94531 23.2969C9.80469 23.3047 9.67578 23.3242 9.55859 23.3555C9.43359 23.3867 9.33203 23.4336 9.25391 23.4961C9.17578 23.5586 9.13672 23.6484 9.13672 23.7656C9.13672 23.9219 9.26562 24.0391 9.52344 24.1172C9.78125 24.1953 10.2148 24.2344 10.8242 24.2344C11.293 24.2344 11.7383 24.1836 12.1602 24.082C12.5898 23.9805 12.9922 23.832 13.3672 23.6367C12.8516 23.543 12.3398 23.4609 11.832 23.3906C11.3242 23.3203 10.8281 23.2852 10.3438 23.2852ZM35.75 4.32422C37.2969 4.32422 38.6953 4.57422 39.9453 5.07422C41.2031 5.56641 42.2773 6.25391 43.168 7.13672C44.0586 8.01953 44.7461 9.07031 45.2305 10.2891C45.7148 11.5078 45.957 12.8398 45.957 14.2852C45.957 15.2148 45.8672 16.1133 45.6875 16.9805C45.5078 17.8477 45.25 18.6641 44.9141 19.4297C44.5781 20.1953 44.1641 20.8945 43.6719 21.5273C43.1875 22.1602 42.6367 22.707 42.0195 23.168C41.4102 23.6211 40.7383 23.9727 40.0039 24.2227C39.2773 24.4727 38.5 24.5977 37.6719 24.5977C36.8281 24.5977 35.9766 24.5195 35.1172 24.3633C34.2578 24.207 33.4062 24.0391 32.5625 23.8594C32.2734 24.0234 31.9766 24.1641 31.6719 24.2812C31.3672 24.4062 31.0625 24.5078 30.7578 24.5859C30.4531 24.6719 30.1523 24.7344 29.8555 24.7734C29.5664 24.8203 29.293 24.8438 29.0352 24.8438C28.2539 24.8438 27.6602 24.7539 27.2539 24.5742C26.8398 24.3945 26.6328 24.125 26.6328 23.7656C26.6328 23.5547 26.6914 23.3672 26.8086 23.2031C26.918 23.0391 27.1055 22.9023 27.3711 22.793C27.6367 22.6758 27.9844 22.5898 28.4141 22.5352C28.8359 22.4727 29.3633 22.4414 29.9961 22.4414C30.4883 22.4414 30.9727 22.4688 31.4492 22.5234C31.9258 22.5703 32.3984 22.6289 32.8672 22.6992L33.1836 22.3711C33.3477 22.1758 33.4727 21.9297 33.5586 21.6328C33.6445 21.3281 33.707 20.9375 33.7461 20.4609C33.7852 19.9844 33.8086 19.4023 33.8164 18.7148C33.8242 18.0195 33.8281 17.1797 33.8281 16.1953C33.8281 15.2422 33.832 14.4297 33.8398 13.7578C33.8555 13.0781 33.8867 12.4961 33.9336 12.0117C33.9805 11.5273 34.0508 11.1172 34.1445 10.7812C34.2383 10.4375 34.3633 10.125 34.5195 9.84375C34.6836 9.55469 34.8867 9.27344 35.1289 9C35.3711 8.71875 35.6602 8.39844 35.9961 8.03906L36.5938 8.56641C36.4219 8.73047 36.2852 8.93359 36.1836 9.17578C36.0898 9.41016 36.0195 9.69141 35.9727 10.0195C35.9258 10.3398 35.8945 10.707 35.8789 11.1211C35.8711 11.5273 35.8672 11.9883 35.8672 12.5039V19.1016C35.8672 19.6094 35.8125 20.0547 35.7031 20.4375C35.5938 20.8125 35.4453 21.1484 35.2578 21.4453C35.0781 21.7422 34.8711 22.0078 34.6367 22.2422C34.4023 22.4766 34.1602 22.6953 33.9102 22.8984C34.3711 22.9922 34.8203 23.0859 35.2578 23.1797C35.6953 23.2734 36.1172 23.3594 36.5234 23.4375C36.9375 23.5156 37.332 23.582 37.707 23.6367C38.0898 23.6836 38.4531 23.707 38.7969 23.707C39.4375 23.707 40.0078 23.5664 40.5078 23.2852C41.0078 23.0039 41.4414 22.6211 41.8086 22.1367C42.1758 21.6445 42.4844 21.0703 42.7344 20.4141C42.9922 19.75 43.1992 19.0391 43.3555 18.2812C43.5117 17.5234 43.6211 16.7305 43.6836 15.9023C43.7539 15.0742 43.7891 14.2539 43.7891 13.4414C43.7891 12.1523 43.625 10.9961 43.2969 9.97266C42.9688 8.94922 42.4805 8.08203 41.832 7.37109C41.1914 6.65234 40.3906 6.10547 39.4297 5.73047C38.4766 5.34766 37.3711 5.15625 36.1133 5.15625C35.207 5.15625 34.418 5.23047 33.7461 5.37891C33.0742 5.51953 32.4961 5.71094 32.0117 5.95312C31.5352 6.1875 31.1445 6.45703 30.8398 6.76172C30.5352 7.06641 30.293 7.38281 30.1133 7.71094C29.9414 8.03125 29.8203 8.35156 29.75 8.67188C29.6875 8.99219 29.6562 9.28516 29.6562 9.55078C29.6562 9.86328 29.6797 10.1719 29.7266 10.4766C29.7812 10.7734 29.8828 11.0391 30.0312 11.2734C30.1875 11.5078 30.4062 11.6953 30.6875 11.8359C30.9688 11.9766 31.3438 12.0469 31.8125 12.0469C31.9688 12.0469 32.0977 12.0391 32.1992 12.0234C32.3008 12 32.3867 11.9727 32.457 11.9414C32.5352 11.9102 32.6016 11.875 32.6562 11.8359L32.7969 12.5273C32.6797 12.6133 32.4805 12.6875 32.1992 12.75C31.9258 12.8125 31.6289 12.8438 31.3086 12.8438C30.8398 12.8438 30.4023 12.7617 29.9961 12.5977C29.5977 12.4336 29.25 12.2109 28.9531 11.9297C28.6562 11.6406 28.4258 11.3086 28.2617 10.9336C28.0898 10.5586 28.0039 10.1602 28.0039 9.73828C28.0039 9.01172 28.1953 8.32422 28.5781 7.67578C28.9609 7.01953 29.4961 6.44531 30.1836 5.95312C30.8711 5.45312 31.6875 5.05859 32.6328 4.76953C33.5859 4.47266 34.625 4.32422 35.75 4.32422ZM28.5547 23.2852C28.4297 23.2852 28.2969 23.2891 28.1562 23.2969C28.0156 23.3047 27.8867 23.3242 27.7695 23.3555C27.6445 23.3867 27.543 23.4336 27.4648 23.4961C27.3867 23.5586 27.3477 23.6484 27.3477 23.7656C27.3477 23.9219 27.4766 24.0391 27.7344 24.1172C27.9922 24.1953 28.4258 24.2344 29.0352 24.2344C29.5039 24.2344 29.9492 24.1836 30.3711 24.082C30.8008 23.9805 31.2031 23.832 31.5781 23.6367C31.0625 23.543 30.5508 23.4609 30.043 23.3906C29.5352 23.3203 29.0391 23.2852 28.5547 23.2852Z" fill="#15F110"/>
</g>
<defs>
<filter id="filter0_d" x="0.421875" y="0.324219" width="53.5352" height="36.5195" filterUnits="userSpaceOnUse" color-interpolation-filters="sRGB">
<feFlood flood-opacity="0" result="BackgroundImageFix"/>
<feColorMatrix in="SourceAlpha" type="matrix" values="0 0 0 0 0 0 0 0 0 0 0 0 0 0 0 0 0 0 127 0"/>
<feOffset dy="4"/>
<feGaussianBlur stdDeviation="4"/>
<feColorMatrix type="matrix" values="0 0 0 0 0 0 0 0 0 0 0 0 0 0 0 0 0 0 0.25 0"/>
<feBlend mode="normal" in2="BackgroundImageFix" result="effect1_dropShadow"/>
<feBlend mode="normal" in="SourceGraphic" in2="effect1_dropShadow" result="shape"/>
</filter>
</defs>
</svg>
