<svg width="445" height="72" viewBox="0 0 445 72" fill="none" xmlns="http://www.w3.org/2000/svg">
<g filter="url(#filter0_d)">
<path d="M26.712 31.296C27.128 31.296 27.448 31.488 27.672 31.872C27.928 32.256 28.056 32.784 28.056 33.456C28.056 34.736 27.752 35.728 27.144 36.432C25.96 37.872 24.28 39.2 22.104 40.416C19.96 41.632 17.656 42.24 15.192 42.24C11.832 42.24 9.224 41.328 7.368 39.504C5.512 37.68 4.584 35.184 4.584 32.016C4.584 29.808 5.048 27.76 5.976 25.872C6.904 23.952 8.184 22.432 9.816 21.312C11.48 20.192 13.352 19.632 15.432 19.632C17.288 19.632 18.776 20.192 19.896 21.312C21.016 22.4 21.576 23.888 21.576 25.776C21.576 27.984 20.776 29.888 19.176 31.488C17.608 33.056 14.936 34.304 11.16 35.232C11.96 36.704 13.48 37.44 15.72 37.44C17.16 37.44 18.792 36.944 20.616 35.952C22.472 34.928 24.072 33.6 25.416 31.968C25.8 31.52 26.232 31.296 26.712 31.296ZM14.616 24.336C13.432 24.336 12.424 25.024 11.592 26.4C10.792 27.776 10.392 29.44 10.392 31.392V31.488C12.28 31.04 13.768 30.368 14.856 29.472C15.944 28.576 16.488 27.536 16.488 26.352C16.488 25.744 16.312 25.264 15.96 24.912C15.64 24.528 15.192 24.336 14.616 24.336ZM27.5558 42.24C26.3398 42.24 25.4758 41.6 24.9638 40.32C24.4838 39.04 24.2438 36.992 24.2438 34.176C24.2438 30.016 24.8358 26.064 26.0198 22.32C26.3078 21.392 26.7718 20.72 27.4118 20.304C28.0838 19.856 29.0118 19.632 30.1958 19.632C30.8358 19.632 31.2838 19.712 31.5398 19.872C31.7958 20.032 31.9238 20.336 31.9238 20.784C31.9238 21.296 31.6838 22.448 31.2038 24.24C30.8838 25.52 30.6278 26.64 30.4358 27.6C30.2438 28.56 30.0838 29.744 29.9558 31.152C31.0118 28.4 32.1958 26.16 33.5078 24.432C34.8198 22.704 36.0998 21.472 37.3478 20.736C38.6278 20 39.7958 19.632 40.8518 19.632C42.9318 19.632 43.9718 20.672 43.9718 22.752C43.9718 24 43.6198 26.256 42.9158 29.52C42.3078 32.304 42.0038 34.144 42.0038 35.04C42.0038 36.32 42.4678 36.96 43.3958 36.96C44.0358 36.96 44.7878 36.576 45.6518 35.808C46.5478 35.008 47.7318 33.728 49.2038 31.968C49.5878 31.52 50.0198 31.296 50.4998 31.296C50.9158 31.296 51.2358 31.488 51.4598 31.872C51.7158 32.256 51.8438 32.784 51.8438 33.456C51.8438 34.736 51.5398 35.728 50.9318 36.432C49.5558 38.128 48.0678 39.52 46.4678 40.608C44.8998 41.696 43.1078 42.24 41.0918 42.24C39.4598 42.24 38.2278 41.776 37.3958 40.848C36.5638 39.888 36.1478 38.512 36.1478 36.72C36.1478 35.824 36.3718 34.224 36.8198 31.92C37.2358 29.904 37.4438 28.512 37.4438 27.744C37.4438 27.232 37.2678 26.976 36.9158 26.976C36.4998 26.976 35.9078 27.52 35.1398 28.608C34.4038 29.664 33.6358 31.072 32.8358 32.832C32.0678 34.592 31.4438 36.448 30.9638 38.4C30.6118 39.904 30.1958 40.928 29.7158 41.472C29.2678 41.984 28.5478 42.24 27.5558 42.24ZM64.2323 21.216C65.0323 21.216 65.5923 21.344 65.9123 21.6C66.2643 21.824 66.4403 22.288 66.4403 22.992C66.4403 23.376 66.4243 23.68 66.3923 23.904C66.2643 24.896 65.8643 27.456 65.1923 31.584C64.7123 34.368 64.4083 36.208 64.2803 37.104C63.0643 45.36 61.4163 51.872 59.3363 56.64C57.2883 61.44 54.5363 63.84 51.0803 63.84C49.4483 63.84 48.1203 63.328 47.0963 62.304C46.0723 61.312 45.5602 60 45.5602 58.368C45.5602 56.096 46.4563 53.648 48.2483 51.024C50.0403 48.432 53.4003 45.232 58.3282 41.424L58.6163 39.552C58.0723 40.416 57.3523 41.088 56.4563 41.568C55.5923 42.016 54.7283 42.24 53.8643 42.24C51.8803 42.24 50.2963 41.52 49.1123 40.08C47.9283 38.64 47.3363 36.752 47.3363 34.416C47.3363 31.856 47.9283 29.44 49.1123 27.168C50.2963 24.864 51.8643 23.024 53.8163 21.648C55.8003 20.24 57.8963 19.536 60.1043 19.536C60.8083 19.536 61.2723 19.68 61.4963 19.968C61.7523 20.224 61.9603 20.704 62.1203 21.408C62.7283 21.28 63.4323 21.216 64.2323 21.216ZM55.5923 37.392C56.3283 37.392 57.0323 36.944 57.7043 36.048C58.3763 35.152 58.8563 33.872 59.1443 32.208L60.6803 24C59.3683 24.032 58.1523 24.544 57.0323 25.536C55.9123 26.496 55.0163 27.776 54.3443 29.376C53.6723 30.976 53.3363 32.672 53.3363 34.464C53.3363 35.456 53.5283 36.192 53.9123 36.672C54.3283 37.152 54.8883 37.392 55.5923 37.392ZM51.6083 59.184C52.4083 59.184 53.3043 58.224 54.2963 56.304C55.3203 54.384 56.2963 51.328 57.2243 47.136C54.7603 49.248 52.9843 51.152 51.8963 52.848C50.8083 54.544 50.2643 56.032 50.2643 57.312C50.2643 57.856 50.3603 58.304 50.5523 58.656C50.7763 59.008 51.1283 59.184 51.6083 59.184ZM72.8348 42.24C71.4268 42.24 70.3548 41.856 69.6188 41.088C68.9148 40.32 68.5628 39.312 68.5628 38.064C68.5628 36.624 68.9628 35.472 69.7628 34.608C70.5948 33.744 71.7468 33.312 73.2188 33.312C74.6268 33.312 75.6828 33.664 76.3868 34.368C77.1228 35.04 77.4908 36.048 77.4908 37.392C77.4908 38.864 77.0748 40.048 76.2428 40.944C75.4108 41.808 74.2748 42.24 72.8348 42.24ZM94.3309 42.24C92.4749 42.24 90.3789 42.08 88.0429 41.76C86.7629 41.6 85.8829 41.264 85.4029 40.752C84.9229 40.24 84.7149 39.408 84.7789 38.256C85.0029 35.088 85.5309 31.184 86.3629 26.544C87.1949 21.872 88.2029 17.376 89.3869 13.056C89.6109 12.256 90.0589 11.696 90.7309 11.376C91.4029 11.056 92.2829 10.896 93.3709 10.896C95.3229 10.896 96.2989 11.44 96.2989 12.528C96.2989 12.976 96.2029 13.488 96.0109 14.064C95.1789 16.624 94.3469 20.064 93.5149 24.384C92.6829 28.672 92.0909 32.768 91.7389 36.672C92.6989 36.768 93.7869 36.816 95.0029 36.816C100.603 36.816 104.779 35.12 107.531 31.728C110.315 28.336 111.707 23.808 111.707 18.144C111.707 14.336 110.619 11.392 108.443 9.312C106.267 7.232 103.195 6.192 99.2269 6.192C96.6669 6.192 94.1229 6.592 91.5949 7.392C89.0989 8.192 86.8429 9.248 84.8269 10.56C84.4109 10.848 83.9629 10.992 83.4829 10.992C82.9389 10.992 82.5069 10.768 82.1869 10.32C81.8669 9.84 81.7069 9.264 81.7069 8.592C81.7069 7.824 81.8349 7.2 82.0909 6.72C82.3469 6.208 82.7789 5.744 83.3869 5.328C85.5949 3.824 88.1869 2.688 91.1629 1.92C94.1389 1.12 97.0029 0.719999 99.7549 0.719999C103.659 0.719999 107.035 1.408 109.883 2.784C112.731 4.128 114.923 6.112 116.459 8.736C117.995 11.36 118.763 14.528 118.763 18.24C118.763 23.072 117.803 27.296 115.883 30.912C113.963 34.496 111.163 37.28 107.483 39.264C103.803 41.248 99.4189 42.24 94.3309 42.24ZM127.795 16.464C126.451 16.464 125.443 16.16 124.771 15.552C124.099 14.912 123.763 14.032 123.763 12.912C123.763 11.792 124.195 10.864 125.059 10.128C125.955 9.36 127.059 8.976 128.371 8.976C129.555 8.976 130.515 9.264 131.251 9.84C131.987 10.416 132.355 11.232 132.355 12.288C132.355 13.568 131.939 14.592 131.107 15.36C130.275 16.096 129.171 16.464 127.795 16.464ZM127.411 42.24C125.331 42.24 123.811 41.504 122.851 40.032C121.923 38.56 121.459 36.608 121.459 34.176C121.459 32.736 121.635 30.896 121.987 28.656C122.371 26.384 122.851 24.272 123.427 22.32C123.715 21.296 124.099 20.592 124.579 20.208C125.059 19.824 125.827 19.632 126.883 19.632C128.515 19.632 129.331 20.176 129.331 21.264C129.331 22.064 129.027 23.92 128.419 26.832C127.651 30.352 127.267 32.736 127.267 33.984C127.267 34.944 127.395 35.68 127.651 36.192C127.907 36.704 128.339 36.96 128.947 36.96C129.523 36.96 130.243 36.56 131.107 35.76C131.971 34.96 133.123 33.696 134.563 31.968C134.947 31.52 135.379 31.296 135.859 31.296C136.275 31.296 136.595 31.488 136.819 31.872C137.075 32.256 137.203 32.784 137.203 33.456C137.203 34.736 136.899 35.728 136.291 36.432C133.123 40.304 130.163 42.24 127.411 42.24ZM136.728 42.24C135.512 42.24 134.648 41.6 134.136 40.32C133.656 39.04 133.416 36.992 133.416 34.176C133.416 30.016 134.008 26.064 135.192 22.32C135.48 21.392 135.944 20.72 136.584 20.304C137.256 19.856 138.184 19.632 139.368 19.632C140.008 19.632 140.456 19.712 140.712 19.872C140.968 20.032 141.096 20.336 141.096 20.784C141.096 21.296 140.856 22.448 140.376 24.24C140.056 25.52 139.8 26.64 139.608 27.6C139.416 28.528 139.256 29.696 139.128 31.104C139.992 28.608 141.016 26.496 142.2 24.768C143.416 23.04 144.648 21.76 145.896 20.928C147.176 20.064 148.376 19.632 149.496 19.632C150.616 19.632 151.4 19.888 151.848 20.4C152.328 20.912 152.568 21.696 152.568 22.752C152.568 23.776 152.264 25.632 151.656 28.32C151.4 29.472 151.224 30.336 151.128 30.912C152.728 26.976 154.504 24.112 156.456 22.32C158.408 20.528 160.232 19.632 161.928 19.632C164.008 19.632 165.048 20.672 165.048 22.752C165.048 24 164.696 26.256 163.992 29.52C163.384 32.304 163.08 34.144 163.08 35.04C163.08 36.32 163.544 36.96 164.472 36.96C165.112 36.96 165.864 36.576 166.728 35.808C167.624 35.008 168.808 33.728 170.28 31.968C170.664 31.52 171.096 31.296 171.576 31.296C171.992 31.296 172.312 31.488 172.536 31.872C172.792 32.256 172.92 32.784 172.92 33.456C172.92 34.736 172.616 35.728 172.008 36.432C170.632 38.128 169.144 39.52 167.544 40.608C165.976 41.696 164.184 42.24 162.168 42.24C160.536 42.24 159.304 41.776 158.472 40.848C157.64 39.888 157.224 38.512 157.224 36.72C157.224 35.824 157.448 34.224 157.896 31.92C158.312 29.904 158.52 28.512 158.52 27.744C158.52 27.232 158.344 26.976 157.992 26.976C157.576 26.976 156.984 27.52 156.216 28.608C155.448 29.664 154.68 31.072 153.912 32.832C153.144 34.592 152.52 36.448 152.04 38.4C151.688 39.936 151.272 40.96 150.792 41.472C150.344 41.984 149.608 42.24 148.584 42.24C147.528 42.24 146.728 41.744 146.184 40.752C145.672 39.728 145.416 38.496 145.416 37.056C145.416 35.84 145.576 34.08 145.896 31.776C146.152 29.728 146.28 28.384 146.28 27.744C146.28 27.232 146.104 26.976 145.752 26.976C145.272 26.976 144.664 27.552 143.928 28.704C143.192 29.856 142.472 31.328 141.768 33.12C141.096 34.912 140.552 36.672 140.136 38.4C139.784 39.904 139.368 40.928 138.888 41.472C138.44 41.984 137.72 42.24 136.728 42.24ZM175.326 16.464C173.982 16.464 172.974 16.16 172.302 15.552C171.63 14.912 171.294 14.032 171.294 12.912C171.294 11.792 171.726 10.864 172.59 10.128C173.486 9.36 174.59 8.976 175.902 8.976C177.086 8.976 178.046 9.264 178.782 9.84C179.518 10.416 179.886 11.232 179.886 12.288C179.886 13.568 179.47 14.592 178.638 15.36C177.806 16.096 176.702 16.464 175.326 16.464ZM174.942 42.24C172.862 42.24 171.342 41.504 170.382 40.032C169.454 38.56 168.99 36.608 168.99 34.176C168.99 32.736 169.166 30.896 169.518 28.656C169.902 26.384 170.382 24.272 170.958 22.32C171.246 21.296 171.63 20.592 172.11 20.208C172.59 19.824 173.358 19.632 174.414 19.632C176.046 19.632 176.862 20.176 176.862 21.264C176.862 22.064 176.558 23.92 175.95 26.832C175.182 30.352 174.798 32.736 174.798 33.984C174.798 34.944 174.926 35.68 175.182 36.192C175.438 36.704 175.87 36.96 176.478 36.96C177.054 36.96 177.774 36.56 178.638 35.76C179.502 34.96 180.654 33.696 182.094 31.968C182.478 31.52 182.91 31.296 183.39 31.296C183.806 31.296 184.126 31.488 184.35 31.872C184.606 32.256 184.734 32.784 184.734 33.456C184.734 34.736 184.43 35.728 183.822 36.432C180.654 40.304 177.694 42.24 174.942 42.24ZM202.259 31.296C202.675 31.296 202.995 31.488 203.219 31.872C203.475 32.256 203.603 32.784 203.603 33.456C203.603 34.736 203.299 35.728 202.691 36.432C201.315 38.128 199.811 39.52 198.179 40.608C196.547 41.696 194.675 42.24 192.563 42.24C186.035 42.24 182.771 37.648 182.771 28.464C182.771 27.056 182.819 25.632 182.915 24.192H181.043C180.083 24.192 179.427 24.016 179.075 23.664C178.755 23.312 178.595 22.752 178.595 21.984C178.595 20.192 179.315 19.296 180.755 19.296H183.491C184.035 15.776 184.867 12.56 185.987 9.648C187.107 6.736 188.451 4.416 190.019 2.688C191.619 0.959998 193.331 0.0959988 195.155 0.0959988C196.499 0.0959988 197.555 0.687999 198.323 1.872C199.091 3.056 199.475 4.544 199.475 6.336C199.475 11.296 197.395 15.616 193.235 19.296H198.611C199.123 19.296 199.491 19.408 199.715 19.632C199.939 19.856 200.051 20.272 200.051 20.88C200.051 23.088 198.243 24.192 194.627 24.192H188.771C188.707 25.792 188.675 27.04 188.675 27.936C188.675 31.264 189.059 33.6 189.827 34.944C190.627 36.288 191.875 36.96 193.571 36.96C194.947 36.96 196.163 36.544 197.219 35.712C198.275 34.88 199.523 33.632 200.963 31.968C201.347 31.52 201.779 31.296 202.259 31.296ZM193.859 4.704C193.379 4.704 192.835 5.312 192.227 6.528C191.651 7.712 191.091 9.376 190.547 11.52C190.035 13.632 189.603 15.984 189.251 18.576C191.139 16.944 192.547 15.12 193.475 13.104C194.435 11.056 194.915 9.2 194.915 7.536C194.915 5.648 194.563 4.704 193.859 4.704ZM205.599 42.24C203.615 42.24 202.031 41.52 200.847 40.08C199.663 38.64 199.071 36.752 199.071 34.416C199.071 31.856 199.663 29.44 200.847 27.168C202.031 24.864 203.599 23.024 205.551 21.648C207.535 20.24 209.631 19.536 211.839 19.536C212.543 19.536 213.007 19.68 213.231 19.968C213.487 20.224 213.695 20.704 213.855 21.408C214.527 21.28 215.231 21.216 215.967 21.216C217.535 21.216 218.319 21.776 218.319 22.896C218.319 23.568 218.079 25.168 217.599 27.696C216.863 31.376 216.495 33.936 216.495 35.376C216.495 35.856 216.607 36.24 216.831 36.528C217.087 36.816 217.407 36.96 217.791 36.96C218.399 36.96 219.135 36.576 219.999 35.808C220.863 35.008 222.031 33.728 223.503 31.968C223.887 31.52 224.319 31.296 224.799 31.296C225.215 31.296 225.535 31.488 225.759 31.872C226.015 32.256 226.143 32.784 226.143 33.456C226.143 34.736 225.839 35.728 225.231 36.432C223.919 38.064 222.527 39.44 221.055 40.56C219.583 41.68 218.159 42.24 216.783 42.24C215.727 42.24 214.751 41.888 213.855 41.184C212.991 40.448 212.335 39.456 211.887 38.208C210.223 40.896 208.127 42.24 205.599 42.24ZM207.327 37.392C208.031 37.392 208.703 36.976 209.343 36.144C209.983 35.312 210.447 34.208 210.735 32.832L212.511 24C211.167 24.032 209.919 24.544 208.767 25.536C207.647 26.496 206.751 27.776 206.079 29.376C205.407 30.976 205.071 32.672 205.071 34.464C205.071 35.456 205.263 36.192 205.647 36.672C206.063 37.152 206.623 37.392 207.327 37.392ZM241.634 26.208C242.338 26.208 242.93 26.464 243.41 26.976C243.922 27.456 244.177 28.064 244.177 28.8C244.177 29.216 244.082 29.664 243.89 30.144C243.378 31.328 242.658 32.32 241.73 33.12C240.802 33.92 239.778 34.32 238.658 34.32C237.762 34.32 236.994 34 236.354 33.36C235.746 32.72 235.442 31.856 235.442 30.768C235.442 30.16 235.474 29.504 235.538 28.8C235.602 28.288 235.634 27.936 235.634 27.744C235.634 27.488 235.57 27.296 235.442 27.168C235.346 27.04 235.218 26.976 235.058 26.976C234.61 26.976 234.002 27.52 233.234 28.608C232.466 29.664 231.698 31.072 230.93 32.832C230.162 34.592 229.538 36.448 229.058 38.4C228.706 39.936 228.306 40.96 227.858 41.472C227.41 41.984 226.674 42.24 225.65 42.24C224.434 42.24 223.57 41.6 223.058 40.32C222.578 39.04 222.338 36.992 222.338 34.176C222.338 30.016 222.93 26.064 224.114 22.32C224.402 21.392 224.866 20.72 225.506 20.304C226.178 19.856 227.106 19.632 228.29 19.632C228.93 19.632 229.378 19.712 229.634 19.872C229.89 20.032 230.018 20.336 230.018 20.784C230.018 21.296 229.778 22.448 229.298 24.24C228.978 25.52 228.722 26.64 228.53 27.6C228.338 28.56 228.178 29.744 228.05 31.152C229.106 28.4 230.29 26.16 231.602 24.432C232.914 22.704 234.194 21.472 235.442 20.736C236.69 20 237.826 19.632 238.85 19.632C239.778 19.632 240.482 19.904 240.962 20.448C241.474 20.96 241.73 21.728 241.73 22.752C241.73 23.36 241.554 24.512 241.202 26.208H241.634ZM271.19 42.24C269.334 42.24 267.238 42.08 264.902 41.76C263.622 41.6 262.742 41.264 262.262 40.752C261.782 40.24 261.574 39.408 261.638 38.256C261.862 35.088 262.39 31.184 263.222 26.544C264.054 21.872 265.062 17.376 266.246 13.056C266.47 12.256 266.918 11.696 267.59 11.376C268.262 11.056 269.142 10.896 270.23 10.896C272.182 10.896 273.158 11.44 273.158 12.528C273.158 12.976 273.062 13.488 272.87 14.064C272.038 16.624 271.206 20.064 270.374 24.384C269.542 28.672 268.95 32.768 268.598 36.672C269.558 36.768 270.646 36.816 271.862 36.816C277.462 36.816 281.638 35.12 284.39 31.728C287.174 28.336 288.566 23.808 288.566 18.144C288.566 14.336 287.478 11.392 285.302 9.312C283.126 7.232 280.054 6.192 276.086 6.192C273.526 6.192 270.982 6.592 268.454 7.392C265.958 8.192 263.702 9.248 261.686 10.56C261.27 10.848 260.822 10.992 260.342 10.992C259.798 10.992 259.366 10.768 259.046 10.32C258.726 9.84 258.566 9.264 258.566 8.592C258.566 7.824 258.694 7.2 258.95 6.72C259.206 6.208 259.638 5.744 260.246 5.328C262.454 3.824 265.046 2.688 268.022 1.92C270.998 1.12 273.862 0.719999 276.614 0.719999C280.518 0.719999 283.894 1.408 286.742 2.784C289.59 4.128 291.782 6.112 293.318 8.736C294.854 11.36 295.622 14.528 295.622 18.24C295.622 23.072 294.662 27.296 292.742 30.912C290.822 34.496 288.022 37.28 284.342 39.264C280.662 41.248 276.278 42.24 271.19 42.24ZM304.655 16.464C303.311 16.464 302.303 16.16 301.631 15.552C300.959 14.912 300.623 14.032 300.623 12.912C300.623 11.792 301.055 10.864 301.919 10.128C302.815 9.36 303.919 8.976 305.231 8.976C306.415 8.976 307.375 9.264 308.111 9.84C308.847 10.416 309.215 11.232 309.215 12.288C309.215 13.568 308.799 14.592 307.967 15.36C307.135 16.096 306.031 16.464 304.655 16.464ZM304.271 42.24C302.191 42.24 300.671 41.504 299.711 40.032C298.783 38.56 298.319 36.608 298.319 34.176C298.319 32.736 298.495 30.896 298.847 28.656C299.231 26.384 299.711 24.272 300.287 22.32C300.575 21.296 300.959 20.592 301.439 20.208C301.919 19.824 302.687 19.632 303.743 19.632C305.375 19.632 306.191 20.176 306.191 21.264C306.191 22.064 305.887 23.92 305.279 26.832C304.511 30.352 304.127 32.736 304.127 33.984C304.127 34.944 304.255 35.68 304.511 36.192C304.767 36.704 305.199 36.96 305.807 36.96C306.383 36.96 307.103 36.56 307.967 35.76C308.831 34.96 309.983 33.696 311.423 31.968C311.807 31.52 312.239 31.296 312.719 31.296C313.135 31.296 313.455 31.488 313.679 31.872C313.935 32.256 314.063 32.784 314.063 33.456C314.063 34.736 313.759 35.728 313.151 36.432C309.983 40.304 307.023 42.24 304.271 42.24ZM313.587 42.24C312.371 42.24 311.507 41.6 310.995 40.32C310.515 39.04 310.275 36.992 310.275 34.176C310.275 30.016 310.867 26.064 312.051 22.32C312.339 21.392 312.803 20.72 313.443 20.304C314.115 19.856 315.043 19.632 316.227 19.632C316.867 19.632 317.315 19.712 317.571 19.872C317.827 20.032 317.955 20.336 317.955 20.784C317.955 21.296 317.715 22.448 317.235 24.24C316.915 25.52 316.659 26.64 316.467 27.6C316.275 28.528 316.115 29.696 315.987 31.104C316.851 28.608 317.875 26.496 319.059 24.768C320.275 23.04 321.507 21.76 322.755 20.928C324.035 20.064 325.235 19.632 326.355 19.632C327.475 19.632 328.259 19.888 328.707 20.4C329.187 20.912 329.427 21.696 329.427 22.752C329.427 23.776 329.123 25.632 328.515 28.32C328.259 29.472 328.083 30.336 327.987 30.912C329.587 26.976 331.363 24.112 333.315 22.32C335.267 20.528 337.091 19.632 338.787 19.632C340.867 19.632 341.907 20.672 341.907 22.752C341.907 24 341.555 26.256 340.851 29.52C340.243 32.304 339.939 34.144 339.939 35.04C339.939 36.32 340.403 36.96 341.331 36.96C341.971 36.96 342.723 36.576 343.587 35.808C344.483 35.008 345.667 33.728 347.139 31.968C347.523 31.52 347.955 31.296 348.435 31.296C348.851 31.296 349.171 31.488 349.395 31.872C349.651 32.256 349.779 32.784 349.779 33.456C349.779 34.736 349.475 35.728 348.867 36.432C347.491 38.128 346.003 39.52 344.403 40.608C342.835 41.696 341.043 42.24 339.027 42.24C337.395 42.24 336.163 41.776 335.331 40.848C334.499 39.888 334.083 38.512 334.083 36.72C334.083 35.824 334.307 34.224 334.755 31.92C335.171 29.904 335.379 28.512 335.379 27.744C335.379 27.232 335.203 26.976 334.851 26.976C334.435 26.976 333.843 27.52 333.075 28.608C332.307 29.664 331.539 31.072 330.771 32.832C330.003 34.592 329.379 36.448 328.899 38.4C328.547 39.936 328.131 40.96 327.651 41.472C327.203 41.984 326.467 42.24 325.443 42.24C324.387 42.24 323.587 41.744 323.043 40.752C322.531 39.728 322.275 38.496 322.275 37.056C322.275 35.84 322.435 34.08 322.755 31.776C323.011 29.728 323.139 28.384 323.139 27.744C323.139 27.232 322.963 26.976 322.611 26.976C322.131 26.976 321.523 27.552 320.787 28.704C320.051 29.856 319.331 31.328 318.627 33.12C317.955 34.912 317.411 36.672 316.995 38.4C316.643 39.904 316.227 40.928 315.747 41.472C315.299 41.984 314.579 42.24 313.587 42.24ZM352.186 16.464C350.842 16.464 349.834 16.16 349.162 15.552C348.49 14.912 348.154 14.032 348.154 12.912C348.154 11.792 348.586 10.864 349.45 10.128C350.346 9.36 351.45 8.976 352.762 8.976C353.946 8.976 354.906 9.264 355.642 9.84C356.378 10.416 356.746 11.232 356.746 12.288C356.746 13.568 356.33 14.592 355.498 15.36C354.666 16.096 353.562 16.464 352.186 16.464ZM351.802 42.24C349.722 42.24 348.202 41.504 347.242 40.032C346.314 38.56 345.85 36.608 345.85 34.176C345.85 32.736 346.026 30.896 346.378 28.656C346.762 26.384 347.242 24.272 347.818 22.32C348.106 21.296 348.49 20.592 348.97 20.208C349.45 19.824 350.218 19.632 351.274 19.632C352.906 19.632 353.722 20.176 353.722 21.264C353.722 22.064 353.418 23.92 352.81 26.832C352.042 30.352 351.658 32.736 351.658 33.984C351.658 34.944 351.786 35.68 352.042 36.192C352.298 36.704 352.73 36.96 353.338 36.96C353.914 36.96 354.634 36.56 355.498 35.76C356.362 34.96 357.514 33.696 358.954 31.968C359.338 31.52 359.77 31.296 360.25 31.296C360.666 31.296 360.986 31.488 361.21 31.872C361.466 32.256 361.594 32.784 361.594 33.456C361.594 34.736 361.29 35.728 360.682 36.432C357.514 40.304 354.554 42.24 351.802 42.24ZM379.118 31.296C379.534 31.296 379.854 31.488 380.078 31.872C380.334 32.256 380.462 32.784 380.462 33.456C380.462 34.736 380.158 35.728 379.55 36.432C378.174 38.128 376.67 39.52 375.038 40.608C373.406 41.696 371.534 42.24 369.422 42.24C362.894 42.24 359.63 37.648 359.63 28.464C359.63 27.056 359.678 25.632 359.774 24.192H357.902C356.942 24.192 356.286 24.016 355.934 23.664C355.614 23.312 355.454 22.752 355.454 21.984C355.454 20.192 356.174 19.296 357.614 19.296H360.35C360.894 15.776 361.726 12.56 362.846 9.648C363.966 6.736 365.31 4.416 366.878 2.688C368.478 0.959998 370.19 0.0959988 372.014 0.0959988C373.358 0.0959988 374.414 0.687999 375.182 1.872C375.95 3.056 376.334 4.544 376.334 6.336C376.334 11.296 374.254 15.616 370.094 19.296H375.47C375.982 19.296 376.35 19.408 376.574 19.632C376.798 19.856 376.91 20.272 376.91 20.88C376.91 23.088 375.102 24.192 371.486 24.192H365.63C365.566 25.792 365.534 27.04 365.534 27.936C365.534 31.264 365.918 33.6 366.686 34.944C367.486 36.288 368.734 36.96 370.43 36.96C371.806 36.96 373.022 36.544 374.078 35.712C375.134 34.88 376.382 33.632 377.822 31.968C378.206 31.52 378.638 31.296 379.118 31.296ZM370.718 4.704C370.238 4.704 369.694 5.312 369.086 6.528C368.51 7.712 367.95 9.376 367.406 11.52C366.894 13.632 366.462 15.984 366.11 18.576C367.998 16.944 369.406 15.12 370.334 13.104C371.294 11.056 371.774 9.2 371.774 7.536C371.774 5.648 371.422 4.704 370.718 4.704ZM379.962 42.24C378.746 42.24 377.882 41.6 377.37 40.32C376.89 39.04 376.65 36.992 376.65 34.176C376.65 30.016 377.242 26.064 378.426 22.32C378.714 21.392 379.178 20.72 379.818 20.304C380.49 19.856 381.418 19.632 382.602 19.632C383.242 19.632 383.69 19.712 383.946 19.872C384.202 20.032 384.33 20.336 384.33 20.784C384.33 21.296 384.09 22.448 383.61 24.24C383.29 25.52 383.034 26.64 382.842 27.6C382.65 28.56 382.49 29.744 382.362 31.152C383.418 28.4 384.602 26.16 385.914 24.432C387.226 22.704 388.506 21.472 389.754 20.736C391.034 20 392.202 19.632 393.258 19.632C395.338 19.632 396.378 20.672 396.378 22.752C396.378 23.168 396.234 24.176 395.946 25.776C395.69 27.056 395.562 27.856 395.562 28.176C395.562 29.296 395.962 29.856 396.762 29.856C397.658 29.856 398.81 29.152 400.218 27.744C400.634 27.328 401.066 27.12 401.514 27.12C401.93 27.12 402.25 27.312 402.474 27.696C402.73 28.048 402.858 28.528 402.858 29.136C402.858 30.32 402.538 31.248 401.898 31.92C401.002 32.848 399.946 33.648 398.73 34.32C397.546 34.96 396.282 35.28 394.938 35.28C393.242 35.28 391.946 34.848 391.05 33.984C390.186 33.12 389.754 31.952 389.754 30.48C389.754 30 389.802 29.52 389.898 29.04C389.962 28.4 389.994 27.968 389.994 27.744C389.994 27.232 389.818 26.976 389.466 26.976C388.986 26.976 388.346 27.52 387.546 28.608C386.778 29.664 386.01 31.072 385.242 32.832C384.474 34.592 383.85 36.448 383.37 38.4C383.018 39.904 382.602 40.928 382.122 41.472C381.674 41.984 380.954 42.24 379.962 42.24ZM422.878 27.264C423.294 27.264 423.614 27.472 423.838 27.888C424.062 28.304 424.174 28.832 424.174 29.472C424.174 31.008 423.71 31.92 422.782 32.208C420.862 32.88 418.75 33.264 416.446 33.36C415.838 36.048 414.638 38.208 412.846 39.84C411.054 41.44 409.022 42.24 406.75 42.24C404.83 42.24 403.182 41.776 401.806 40.848C400.462 39.92 399.438 38.688 398.734 37.152C398.03 35.616 397.678 33.952 397.678 32.16C397.678 29.728 398.142 27.568 399.07 25.68C399.998 23.76 401.278 22.272 402.91 21.216C404.542 20.128 406.35 19.584 408.334 19.584C410.766 19.584 412.718 20.432 414.19 22.128C415.694 23.792 416.574 25.856 416.83 28.32C418.334 28.224 420.126 27.904 422.206 27.36C422.462 27.296 422.686 27.264 422.878 27.264ZM407.134 37.152C408.158 37.152 409.038 36.736 409.774 35.904C410.542 35.072 411.054 33.872 411.31 32.304C410.318 31.632 409.55 30.752 409.006 29.664C408.494 28.576 408.238 27.424 408.238 26.208C408.238 25.696 408.286 25.184 408.382 24.672H408.142C406.862 24.672 405.79 25.296 404.926 26.544C404.094 27.76 403.678 29.488 403.678 31.728C403.678 33.488 404.014 34.832 404.686 35.76C405.39 36.688 406.206 37.152 407.134 37.152ZM425.803 42.24C424.459 42.24 423.403 41.744 422.635 40.752C421.867 39.728 421.387 38.096 421.195 35.856C420.811 31.376 420.619 27.456 420.619 24.096V22.416C420.651 21.36 420.939 20.624 421.483 20.208C422.027 19.792 422.843 19.584 423.931 19.584C424.763 19.584 425.371 19.776 425.755 20.16C426.171 20.512 426.379 21.12 426.379 21.984C426.379 25.664 426.603 30.448 427.051 36.336C428.427 33.968 429.611 31.808 430.603 29.856C431.627 27.872 432.731 25.264 433.915 22.032C434.267 21.072 434.731 20.432 435.307 20.112C435.883 19.76 436.603 19.584 437.467 19.584C439.227 19.584 440.107 20.144 440.107 21.264C440.107 21.648 439.979 22.176 439.723 22.848C437.131 28.896 434.683 33.776 432.379 37.488C431.259 39.312 430.187 40.56 429.163 41.232C428.139 41.904 427.019 42.24 425.803 42.24Z" fill="#34C96F"/>
</g>
<defs>
<filter id="filter0_d" x="0.584" y="0.0960007" width="443.523" height="71.744" filterUnits="userSpaceOnUse" color-interpolation-filters="sRGB">
<feFlood flood-opacity="0" result="BackgroundImageFix"/>
<feColorMatrix in="SourceAlpha" type="matrix" values="0 0 0 0 0 0 0 0 0 0 0 0 0 0 0 0 0 0 127 0"/>
<feOffset dy="4"/>
<feGaussianBlur stdDeviation="2"/>
<feColorMatrix type="matrix" values="0 0 0 0 0 0 0 0 0 0 0 0 0 0 0 0 0 0 0.25 0"/>
<feBlend mode="normal" in2="BackgroundImageFix" result="effect1_dropShadow"/>
<feBlend mode="normal" in="SourceGraphic" in2="effect1_dropShadow" result="shape"/>
</filter>
</defs>
</svg>
