<svg xmlns="http://www.w3.org/2000/svg"  viewBox="0 0 64 64" width="64px" height="64px"><path d="M 42.994141 5.0800781 C 42.299068 5.0374851 41.555348 5.0902071 40.769531 5.2714844 C 37.078494 6.122193 34.93139 8.3032635 33.767578 9.7128906 A 1.0001 1.0001 0 0 0 33.640625 9.8457031 C 33.577454 9.9242311 33.521919 10.004906 33.460938 10.083984 C 33.385411 10.17999 33.264817 10.315746 33.201172 10.398438 C 32.422089 11.410671 31.197733 12.106121 29.972656 12.097656 C 29.151024 12.091956 28.30848 12.341864 27.765625 12.978516 C 27.22277 13.615168 27.063634 14.455399 27.091797 15.384766 C 27.124537 16.465216 27.578117 17.351534 27.949219 18.130859 C 28.32032 18.910185 28.609609 19.585561 28.632812 20.083984 C 28.661362 20.688834 28.548302 21.067237 28.263672 21.636719 C 27.979039 22.2062 27.501704 22.926918 26.935547 23.949219 C 26.574264 24.601582 26.297983 25.37407 26.066406 25.808594 C 25.990256 22.835804 25.969676 19.669078 25.626953 16.964844 C 25.37943 15.011765 24.995913 12.798653 23.736328 10.990234 C 22.476744 9.1818157 20.259826 7.9260307 16.976562 8 C 14.08266 8.065594 11.669949 9.4412329 10.136719 11.666016 C 8.6034887 13.890798 7.9003838 16.909018 8.0742188 20.365234 C 8.4195669 27.25336 12.093802 39.816547 18.152344 48.566406 C 21.133431 52.871748 23.340446 55.409388 25.404297 56.988281 C 27.468147 58.567175 29.395892 59.127392 31.472656 59.460938 C 34.406009 59.93186 37.867853 60.361037 40.208984 59.652344 C 41.289523 59.324686 41.988889 58.882421 42.417969 58.675781 C 42.847048 58.469142 42.867926 58.428605 43.330078 58.580078 C 44.539277 58.976392 48.296301 60.758528 51.542969 59.005859 C 52.281368 58.607245 52.825114 58.214231 53.222656 57.75 C 53.620198 57.285769 53.851788 56.707628 53.851562 56.162109 C 53.851112 55.071072 53.214876 54.386186 52.8125 53.800781 C 51.968847 52.574166 51.941505 51.913984 52.193359 50.646484 C 52.445214 49.378985 53.106442 47.606216 53.632812 44.921875 C 54.708351 39.436947 53.217941 35.035093 52.453125 32.658203 C 52.048861 31.401835 51.617655 30.465776 51.335938 29.759766 C 51.05422 29.053755 50.950731 28.630591 50.990234 28.287109 C 50.983534 28.345489 51.186286 27.696813 51.505859 26.976562 C 51.825432 26.256314 52.243287 25.345735 52.642578 24.345703 C 53.356639 22.557326 53.97269 20.500815 53.824219 18.527344 A 1.0003223 1.0003223 0 0 0 53.875 18.1875 C 53.84438 16.997937 53.95313 14.659351 52.09375 12.330078 A 1.0001 1.0001 0 0 0 51.912109 12.148438 C 51.912303 12.123278 51.934174 12.107481 51.933594 12.082031 C 51.918994 11.435412 51.523736 10.715609 50.896484 10.34375 A 1.0001 1.0001 0 0 0 50.894531 10.34375 C 50.66646 10.208735 50.466736 10.145363 50.273438 10.103516 C 49.89675 9.3962291 49.133667 8.1893 47.740234 7.0273438 C 46.725822 6.1805961 45.079357 5.2078573 42.994141 5.0800781 z M 42.902344 7.0722656 C 44.46528 7.166509 45.667397 7.9037008 46.458984 8.5644531 C 47.133275 9.126731 47.632947 9.7153736 47.990234 10.214844 C 47.747431 10.254372 47.503514 10.293905 47.259766 10.347656 C 46.778016 10.453891 46.321245 10.595601 45.888672 10.757812 C 44.908527 10.568058 43.068481 10.155427 41.693359 9.5566406 C 41.066856 9.2837055 40.454181 9.1224911 39.880859 9.1015625 C 39.307538 9.0806335 38.774321 9.1987745 38.306641 9.4824219 C 37.37128 10.049717 36.986628 11.165213 37.044922 12.273438 C 37.082442 12.986674 36.973472 13.350002 36.669922 13.820312 C 36.366376 14.290624 35.798873 14.853481 34.960938 15.628906 C 32.365851 18.030831 31.378285 20.187393 31.390625 22.050781 C 31.397625 23.138694 32.047141 24.124185 32.949219 24.560547 C 33.851297 24.996909 34.908923 25.044488 36.082031 24.902344 A 1.0001 1.0001 0 1 0 35.839844 22.917969 C 34.891952 23.032824 34.170485 22.929159 33.820312 22.759766 C 33.470141 22.590377 33.393669 22.515149 33.390625 22.039062 C 33.382925 20.882451 33.971399 19.271732 36.320312 17.097656 C 36.67263 16.771622 36.867075 16.483316 37.160156 16.189453 A 1.0001 1.0001 0 0 0 37.40625 16.042969 C 39.058861 14.743806 42.001741 13.693907 44.150391 13.199219 C 44.231221 13.468097 44.359725 13.712308 44.505859 13.933594 C 44.783073 14.353369 45.147819 14.719536 45.570312 15.033203 C 46.415303 15.660536 47.519466 16.145919 48.712891 15.851562 C 49.606709 15.631849 50.314992 15.038883 50.900391 14.341797 C 51.656429 15.633252 51.808475 16.776926 51.855469 17.832031 A 1.0001 1.0001 0 0 0 51.853516 17.837891 C 51.853516 17.837891 51.573711 18.589566 51.140625 19.347656 C 51.052905 18.935086 51.089605 18.583212 50.927734 18.134766 C 50.927732 18.134531 50.933594 18.109375 50.933594 18.109375 L 50.923828 18.111328 C 50.873868 17.97395 50.916525 17.881046 50.859375 17.740234 A 1.0001 1.0001 0 0 0 48.933594 18.123047 C 48.933594 18.123047 48.932849 19.033066 48.552734 20.033203 C 48.172619 21.03334 47.52806 21.995076 46.048828 22.349609 C 44.646291 22.685761 42.805424 22.019589 41.326172 21.146484 C 39.84692 20.27338 38.794922 19.296875 38.794922 19.296875 A 1.0001 1.0001 0 0 0 37.283203 20.587891 C 37.283203 20.587891 37.74755 21.281406 38.099609 22.201172 C 38.451669 23.120937 38.600113 24.165281 38.300781 24.789062 C 37.814884 25.801631 36.839493 27.691935 36.070312 29.835938 C 35.301133 31.979938 34.698361 34.394638 35.080078 36.638672 C 35.429684 38.693931 36.143548 40.751455 36.765625 42.605469 C 37.387702 44.459482 37.901225 46.135133 37.943359 47.193359 C 37.966429 47.770373 37.787891 47.974929 37.78125 47.978516 C 37.77465 47.982116 37.434821 48.088593 36.535156 47.447266 C 34.201681 45.784256 31.044703 41.81407 30.255859 40.494141 A 1.0001 1.0001 0 0 0 28.480469 40.607422 C 27.895565 41.948467 27.746672 43.835972 27.841797 46.15625 C 27.873407 46.927327 28.135817 47.910797 28.232422 48.757812 C 26.586718 45.824343 25.482924 43.124517 25.113281 38.638672 C 24.835096 35.25168 26.190722 30.300122 26.216797 30.205078 C 27.564557 26.789245 27.590925 26.894509 28.685547 24.917969 C 29.21039 23.970269 29.680617 23.275768 30.052734 22.53125 C 30.070432 22.495842 30.08443 22.457689 30.101562 22.421875 A 1.0001759 1.0001759 0 0 0 30.126953 22.375 C 32.127696 18.486647 32.619373 14.391644 35.128906 11.201172 C 36.141321 9.9274567 37.919751 7.9791018 41.21875 7.21875 A 1.0001 1.0001 0 0 0 41.220703 7.21875 C 41.819886 7.0805269 42.381365 7.0408512 42.902344 7.0722656 z M 17.023438 10 C 19.821174 9.936969 21.179038 10.816732 22.095703 12.132812 C 23.012369 13.448894 23.406101 15.348922 23.642578 17.214844 C 24.107121 20.880317 24.240275 27.577722 24.263672 29.787109 C 24.176742 30.08451 22.796176 34.846754 23.121094 38.802734 C 23.684803 45.643698 25.359745 48.523056 29.154297 54.291016 A 1.0001 1.0001 0 0 0 30.960938 53.5 C 30.295603 50.840131 29.928469 48.23594 29.839844 46.074219 C 29.792764 44.925953 29.99079 44.424866 30.091797 43.595703 C 31.504594 45.461508 33.35547 47.638296 35.373047 49.076172 C 36.566383 49.926844 37.752063 50.267695 38.732422 49.738281 C 39.712781 49.208867 39.98134 48.112267 39.941406 47.113281 C 39.879546 45.559508 39.285579 43.832737 38.660156 41.96875 C 38.034733 40.104763 37.363128 38.127475 37.052734 36.302734 C 36.774451 34.666768 37.239554 32.500717 37.953125 30.511719 C 38.666696 28.52272 39.588413 26.727728 40.103516 25.654297 C 40.558773 24.705578 40.498051 23.760383 40.316406 22.869141 C 41.508905 23.572517 42.981932 24.257577 44.546875 24.410156 C 44.624518 25.120068 44.803131 25.886185 45.066406 26.595703 C 45.244777 27.076406 45.454832 27.52498 45.765625 27.919922 C 46.076418 28.314864 46.592042 28.749411 47.300781 28.697266 C 47.92092 28.651678 48.480995 28.535865 48.996094 28.40625 C 48.988698 29.146559 49.207262 29.822166 49.478516 30.501953 C 49.792048 31.287693 50.183092 32.134852 50.548828 33.271484 C 51.324012 35.680595 52.640384 39.588037 51.669922 44.537109 C 51.173293 47.069769 50.539317 48.711359 50.232422 50.255859 C 49.925527 51.80036 50.077668 53.351209 51.166016 54.933594 L 51.164062 54.933594 C 51.603687 55.573189 51.851514 56.042396 51.851562 56.162109 C 51.851588 56.221969 51.861642 56.264106 51.703125 56.449219 C 51.544605 56.634331 51.198351 56.919708 50.59375 57.246094 C 48.468418 58.393425 45.489926 57.183374 43.953125 56.679688 C 43.042277 56.381158 42.158499 56.581388 41.548828 56.875 C 40.939157 57.16861 40.464368 57.484939 39.628906 57.738281 C 38.138038 58.189588 34.625663 57.941405 31.791016 57.486328 C 29.85178 57.174872 28.40354 56.763543 26.619141 55.398438 C 24.834741 54.03333 22.722788 51.655346 19.796875 47.429688 C 14.041463 39.117547 10.386917 26.541499 10.072266 20.265625 C 9.9151002 17.140842 10.571683 14.558749 11.783203 12.800781 C 12.994723 11.042814 14.71134 10.052406 17.023438 10 z M 39.84375 11.105469 C 40.096491 11.118482 40.441035 11.19306 40.894531 11.390625 C 41.332797 11.581465 41.652944 11.587565 42.111328 11.738281 C 40.958827 12.068071 39.961944 12.524087 38.8125 13.078125 C 38.85937 12.759349 39.06109 12.51247 39.042969 12.167969 C 39.009259 11.527193 39.171111 11.298065 39.34375 11.193359 C 39.43007 11.141007 39.591009 11.092455 39.84375 11.105469 z M 49.876953 12.064453 C 49.975427 12.122831 49.955075 12.099984 49.941406 12.113281 C 49.936398 12.103906 49.927856 12.094591 49.876953 12.064453 z M 49.287109 12.074219 C 49.602779 12.058669 49.877465 12.129391 49.935547 12.125 C 49.935547 12.125 49.933594 12.126953 49.933594 12.126953 C 49.935194 12.196053 49.879314 12.436786 49.708984 12.707031 C 49.368328 13.247521 48.583962 13.82227 48.234375 13.908203 C 47.9358 13.981843 47.27648 13.809903 46.761719 13.427734 C 46.504338 13.236651 46.289833 13.007693 46.173828 12.832031 C 46.160008 12.811111 46.170526 12.829227 46.160156 12.810547 C 46.203176 12.786377 46.207646 12.7762 46.263672 12.75 C 46.598885 12.593277 47.132997 12.42349 47.689453 12.300781 C 48.245909 12.178072 48.833812 12.096546 49.287109 12.074219 z M 31.251953 13.945312 C 30.728253 15.169259 30.309251 16.387673 29.896484 17.587891 C 29.847965 17.486386 29.802562 17.369562 29.755859 17.271484 C 29.387211 16.49731 29.107056 15.827768 29.091797 15.324219 C 29.071957 14.669586 29.205418 14.375442 29.289062 14.277344 C 29.372712 14.179244 29.492617 14.094397 29.958984 14.097656 C 30.402877 14.100724 30.83456 14.042858 31.251953 13.945312 z M 13.080078 17.244141 A 1.0001 1.0001 0 0 0 13.011719 19.242188 L 15.003906 19.412109 A 1.0006832 1.0006832 0 0 0 15.173828 17.417969 L 13.179688 17.25 A 1.0001 1.0001 0 0 0 13.080078 17.244141 z M 49.664062 21.943359 A 1.0001 1.0001 0 0 0 50.951172 22.371094 C 51.074055 22.315294 51.133292 22.212772 51.246094 22.148438 C 51.089618 22.638606 50.974417 23.129508 50.785156 23.603516 C 50.423701 24.508785 50.040235 25.347533 49.71875 26.070312 C 49.343659 26.210697 48.442947 26.530793 47.326172 26.658203 C 47.223104 26.521586 47.06945 26.245466 46.941406 25.900391 C 46.753148 25.393041 46.639106 24.798231 46.572266 24.277344 C 48.10694 23.890958 49.008323 22.942832 49.664062 21.943359 z M 15.421875 21.996094 A 1.0001 1.0001 0 0 0 15.253906 22.011719 L 13.28125 22.347656 A 1.0001 1.0001 0 1 0 13.617188 24.318359 L 15.587891 23.984375 A 1.0001 1.0001 0 0 0 15.421875 21.996094 z M 16.462891 26.644531 A 1.0001 1.0001 0 0 0 16.195312 26.683594 L 14.263672 27.203125 A 1.0001 1.0001 0 1 0 14.783203 29.132812 L 16.714844 28.615234 A 1.0001 1.0001 0 0 0 16.462891 26.644531 z M 17.904297 31.214844 A 1.0001 1.0001 0 0 0 17.541016 31.275391 L 15.654297 31.935547 A 1.0001 1.0001 0 1 0 16.3125 33.822266 L 18.201172 33.164062 A 1.0001 1.0001 0 0 0 17.904297 31.214844 z M 19.570312 35.671875 A 1.0001 1.0001 0 0 0 19.212891 35.759766 L 17.378906 36.556641 A 1.0002029 1.0002029 0 1 0 18.177734 38.390625 L 20.011719 37.59375 A 1.0001 1.0001 0 0 0 19.570312 35.671875 z"/></svg>